<svg xmlns="http://www.w3.org/2000/svg" viewBox="0 0 1394.49 431.5"><defs><style>.cls-1{fill:#000028;}.cls-2{fill:#00103b;}.cls-3{fill:#001742;}.cls-4{fill:#001f4b;}.cls-5{fill:#022754;}.cls-6{fill:#042956;}.cls-7{fill:#001a45;}</style></defs><title>footerAsset 1</title><g id="Layer_2" data-name="Layer 2"><path class="cls-1" d="M1394.49,0l-21,3.18L1310,24.6l-94.25,45.89-53.86,40s-63.48,22.77-69.25,18.18S950.72,92.1,950.72,92.1L868.79,56.72l-59-18.35L738.73,24.6s-69.26,12.24-77.51,15.3S590,73.55,590,73.55l-114.8,26-61.55,17.36-83.47,11.71-87.72-18.18L146.27,96.5,67.4,84.59H25.09L0,89.16V431.5H1394.49Z"/><polygon class="cls-2" points="926.52 250.41 762.64 197.61 559.35 147.01 330.17 147.01 148.19 157.6 67.41 186.81 0 208.91 0 431.5 1114.09 431.5 926.52 250.41"/><path class="cls-3" d="M1394.49,431.5V110.11l-157.58,12.63-98.1,8.74h-96.18L942.09,112.74,729.35,137.53,576.7,205.78,405.94,315.35s-34.4,63.54-63.14,116.15Z"/><polygon class="cls-4" points="1213.82 182.17 1059.94 176.72 942.09 190.5 864.96 208.78 712.41 190.5 647.95 208.06 596.3 206.81 463.65 190.5 304.71 190.5 182.82 184.89 80.87 161.73 17.39 169.91 0 179.64 0 431.5 1394.49 431.5 1394.49 177.94 1342.7 176.72 1213.82 182.17"/><path class="cls-5" d="M1394.49,210.23h-44.1l-103.87,11.4L1100.92,219l-98.68,7.89-165.92,35.7-146.24,6.72L495.22,226.93l-147,2.88h-125S113.57,202.2,105.88,202.35s-55.79,6.33-71.17,1.14c-5.77-1.94-19.63-1.17-34.71.56V431.5H1394.49Z"/><path class="cls-6" d="M1394.49,276.45c-21.45,1.6-43,2.17-59.49.28-50-5.7-69.24-2.44-171.19-4.36s-183.43,12.31-211.59,15.1-103.87,7.19-143.69,7.9-140.1,2.08-140.1,2.08-177.85-10.12-206.7-14.7-95.6-.87-127-2.41-132.63-2.79-138.4-3.53-100,2.37-132.72-.08c-16.69-1.24-42.39-2.35-63.56-3.14V431.5H1394.49Z"/><path class="cls-4" d="M461,400.18l2.25.35,2.24.4,3.85.35,4.49-.29,1.6-.81v-.81l1.92-1.17,5.45-1.27,4.17-1.11,5.45-.69,4.17-.7s9-.29,9.94-.29h9.29l6.1.35,5.77.58,5.77.58,4.17.87s2.56.64,6.41,1.19l3.85.55,3.84.18,6.73.17,6.1-.06,4.81.06,2.24.52v.53l1.92.46,2.25.29,2.56.23,4.49.24,5.13-.12,4.49-.06,3.85-.87,1.6-.75,3.53-.35,6.41-.12,3.84.29,3.85.76,3.53.4,4.49.18H629l5.45-.53,2.88-1v-1.8l3.53-.93,3.21-.64,4.48-.7,1.93-.75a23.72,23.72,0,0,0,3.2-1.28c0-.17-1-1,0-1.22s0-1.45,0-1.45l-1-2.26,1.39-1.46v-.75l2.46-1.22,2.88-1.34,3.21-.92,3.53-.7,2.24-.7v-2.09l-2.56-.75s-1.93-.53-2.25-.7a15.69,15.69,0,0,1-1.92-1.1c-.32-.29-.32-1.11-.32-1.11s1-.05,1-.81v-.75l-.64-1.17-1.92-.92-5.45-.41h-5.78s-5.13-.12-6.09,0,1,1.22,1,1.22l3.85.87,5.77.35.64,1.8a33.28,33.28,0,0,1,3.21,2.15c0,.17,1,2,1,2l-4.49,1.51-7.69,2.9-6.73.35-5.77,1.39-1.93-1.56.32-1.75.32-1.85-2.56-1.8-6.73-1.51-9.62-2-1.61-1.27-.64-1.34-8.65-.46-5.45.29-4.49.23,2.24.87,1.93.64,7.05.58,4.17,1.1s9.94,1.57,9.94,1.74,5.13,1.69,5.13,1.69l-.65,2.26L619.7,383l-5.77.76-2.57,1.39,1.29,1.39,1.92.82-8.34-.06-9.29-.23H583.79l-10.9.23-6.73-.81L561,384.33l-1.28-2-1-2.26,1.92-1.45,9-1.63,7.69-.93,8.66-.35,4.81-.87-1.61-1.1-7-.93-3.21,1,.32.81-7.69.47-6.89.58-8.82,1.68-4.81,1.1-1.6-1.27v-2l.32-1.33-7-.76-8.66-.17-1.28,1.39,5.77.7,4.17,1.1,2.56,3.78.32,4.06.32,2.56-2.88,1.91-5.13,1.1-5.77.35-13.79.18-11.22.11-7.38.12-10.25.81-6.1,1.4L475.75,394l-6.41,1.68-8.34.75-9.3.59h-8.33l-8.34-.12-3.52.58v1l3.84.3,2.89.58,3.53.63,7.69.3,7.37-.18Z"/><path class="cls-4" d="M719.19,398h-5.13l-3.84-.77v-.85l1.71-.62,7.26-.24,8.13.39,6-.39V392l3.42-1.93,5.56-1,10.68-.85h10.26l9.41.7,4.7.77,4.7,1.08,2.57-1.85v-2.1l-3.85-2.94-5.13-2.63-5.56-3.64-8.12-3-9-.39-5.55-.61v-1.24h10.68l11.12.54,7.26,2.63,8.13,4.41,6.41,3.8,5.13,2.86,4.7.54,3.42-1.93,4.27-3.72,9.84-3.95v-2.94l-6-.46s-4.7-1.16-4.7-1.4,7.69-.69,7.69-.69l10.69.69,2.57,2.25-3,2.32-5.13,4.65L817.94,385l-1.28,2.56,12,.46,7.69-.23,12,.39,9.83,1.31,5.56.86-3-2,3-1.47,6-.54,2.57-1.94,2.14-1.62v-2.4l-6-3.41-5.56-1.7-1.28-.93-7.27-.31-3.84-1,4.27-1h8.12l7.27.46,2.57,1.86,6.41,3.79,6.84,1.94L888,382l-2.56,1.55-1.28,2.09.42,1,9-.85,5.56-1.55,6.84-2.17,6-2.86,4.28-2.79v-2.17l-7.7-.69L906,372.31l5.13-.31H921l5.56,1.16L924,376.87l-3.42,2.4-.43,3-1.28,1.55-10.68,1.62-6.84,1.94a38.43,38.43,0,0,0-2.57,3.71c0,.31,0,3.41-.43,3.64s-10.68,2.87-10.68,2.87l-10.26,1.78H865l-9,1.95-8.55.6-6.41-.6-4.7-.56-1.71-1.08-2.56-.62-4.28.31-4.27,1.24-5.13,1-10.26.31-7.27-.93-5.56-1.31-9.4-1.4-3.42-1.31L776.05,395l-4.28-1.31-7.69-.24a38,38,0,0,0-4.7.39,3.14,3.14,0,0,0-.86.93s-.43.54-.43.77v.93s.86.08-.85.78l-1.71.69h0c-2.57.24-5.13.24-5.13.47s-1.71.85-1.71.85l-3,.54a64.16,64.16,0,0,1-7.27.31c-1.28,0-3.42-.08-3.42-.08l-5.13-.93h0a48.47,48.47,0,0,0-6.41-.69Z"/><path class="cls-4" d="M978.45,389.55h-3.84l-3.21-.35h-3.53l-2.88-.58v-.52l1.6-.52H974l4.48-.18,1.93-.46v-2.17l3.2-.77,4.28-.66,4.27-.27h7.27l4.92.23,3.84.43,4.28.38,1.92-.69v-.85l-3.2-1.2-4.28-2.52-2.56-1.67-1.29-1.12-3.2-1.2-1.07-.77h-3.21l-2.13-.62,1.71-.51h5.13l5.13.31.42.93,2.14,1.44,2.14,1.47,4.27,1.55,1.71,1.12,1.07,1.2,1.92.89,3,.31,1.92-.54,1.07-1.09v-1.12l2.78-1.08,2.35-.66,2.56-1.09,1.5-.85v-1.31l-2.57-.24-3-.46-1.28-.54,2.14-.43h4.7l4.7.89v2l-2.35,1.63-3,2.71.21.73,1.07,1.09,4.06.66,7.7,0,4.91.23,4.28.35s2.77.42,3.42.46,4.48,0,4.48,0v-.46l1.5-.78,3.42-.93,1.07-1.54v-1.55l-2.14-1.47-3.2-1-2.36-1.2-3.2-.54-3.21-.31-2.13-.51,4.06-.54,7,.31,3.63.93,1.5,1.2,3.42,1.47,3.85.89v1.12l-2.35,1.2-.86.89-.64,1.13,2.14,1.16,3.42-1.59,2.56-.89,3.63-1,6.84-2,2.78-1.35v-1.86l-3.2-.39-1.93-.62,2.78-.35,5.34.12,3.42.54v1.09l-3.63,3.05-.85.89-.43,1-.43.62-1.92.43-1.93.41-3.63.44-3.42.81-1.28,1.08a13.44,13.44,0,0,1,1.07,1.36,9.76,9.76,0,0,0,1.49.89l-.42.93-1.93,1-5.77,1.09-8.33,1-6.2.66L1055,391h-3.63l-3.42.34-3.85.43-2.35.19h-5.13l-3.63-.31-3-.54-4.7-1.24-3.63-.73-5.34-.93-6.63-1.05-6.63-1-3.2-.16h-3.21a10.22,10.22,0,0,0-1.49.31,1,1,0,0,0-.43.54v.39a13.18,13.18,0,0,1,1.49,1.12,6.75,6.75,0,0,1-1.28.7l-1.71.81-1.49.31-2.57.19-3.2,0-2.57-.31-.64-.38-2.35-.12Z"/><path class="cls-4" d="M644.39,392.51s23.08-.93,77.37,4.11h6.84a714.8,714.8,0,0,0-85.92-5Z"/><path class="cls-4" d="M898.24,386.94s24.43-1.57,84.7,1l5.45-.17s-48.19-3.31-92.61-1.66Z"/><path class="cls-4" d="M353.71,379.2l-.86,2,.43,1.47-2.14,1.24-3.42,1.47-.43,1.32a27.62,27.62,0,0,1-3.41.85l-2.57.23v.85l3,.54,1.28.7-2.56.93-3.85.47h-6l-4.28-.47-2.56-.93V389l2.56-.62h3.42l2.35-.46v-.7a28.25,28.25,0,0,1-5.77-1.19l-.85-1.21.43-1.31-2.14-1.71,2.56-1.78-2.56-.85s-4.7-.7-5.13-.93-2.57-1.63-2.57-1.63v-.92l3.12-.4-.39-.32-1.76-.49-4.49-.24h-3.85s-3.53.09-4,0l-2.56-.43.8-.38,3.21-.2h14.9l1.77.38v.66l.8.87h22.44v-.71l-3.69-.65h-2.88l-4-.32-.8-.64,4.81-.43,7.59.18,3.84.89,2.83.68v.48l-1.44.15-1.92,0-.6.44,4.77.19,3,.86v1.08Z"/><path class="cls-4" d="M341.74,386.48s29.49.4,57.39,2.72,39.75,5.75,43.92,8.19h3.85s-6.42-5.81-40.4-8.36-64.76-3.31-64.76-3.31Z"/><path class="cls-4" d="M334,386.74s-9.29.93-12.18,0,1-1.8,8-1.92l2.53.52s-9-.11-7,.7,8.65.26,8.65.26Z"/><path class="cls-4" d="M337.37,386.24s-11.52-.11-14.73-.87-1.93-1.33,3.21-1.33,11.54.17,13.15.75S337.37,386.24,337.37,386.24Z"/><path class="cls-1" d="M461,223.45l2.25-1.92,2.24-2.24,3.85-1.93,4.49,1.61,1.6,4.48v4.49l1.92,6.41,5.45,7.06L487,247.5l5.45,3.85,4.17,3.84s9,1.61,9.94,1.61h9.29l6.1-1.93,5.77-3.2,5.77-3.21,4.17-4.81a37.93,37.93,0,0,1,6.41-6.57l3.85-3.05,3.84-1,6.73-1,6.1.32,4.81-.32,2.24-2.88v-2.89l1.92-2.57,2.25-1.6,2.56-1.28,4.49-1.28,5.13.64,4.49.32,3.85,4.81,1.6,4.17,3.53,1.92,6.41.64,3.84-1.6,3.85-4.17,3.53-2.24,4.49-1H629l5.45,2.89,2.88,5.77v9.94l3.53,5.13,3.21,3.52,4.48,3.85,1.93,4.17s3.2,6.09,3.2,7.05-1,5.45,0,6.74,0,8,0,8l-1,12.5,1.39,8v4.17l2.46,6.73,2.88,7.37,3.21,5.13,3.53,3.85,2.24,3.85v11.54l-2.56,4.17a30.72,30.72,0,0,0-2.25,3.84c-.32,1-1.6,4.49-1.92,6.1a50.59,50.59,0,0,0-.32,6.09s1,.32,1,4.49v4.16l-.64,6.42-1.92,5.13L654.33,386h-5.78s-5.13.64-6.09,0,1-6.73,1-6.73l3.85-4.81,5.77-1.93.64-9.93s3.21-10.9,3.21-11.87,1-11.22,1-11.22l-4.49-8.33-7.69-16-6.73-1.93-5.77-7.69-1.93,8.65.32,9.62.32,10.26L629.32,344l-6.73,8.34L613,363.56l-1.61,7.05-.64,7.37-8.65,2.57-5.45-1.6-4.49-1.29,2.24-4.81,1.93-3.52,7.05-3.21,4.17-6.09s9.94-8.66,9.94-9.62,5.13-9.29,5.13-9.29l-.65-12.51-2.24-10.26-5.77-4.17-2.57-7.69,1.29-7.69,1.92-4.49-8.34.32-9.29,1.28H583.79l-10.9-1.28-6.73,4.49L561,311l-1.28,11.22-1,12.5,1.92,8,9,9,7.69,5.12,8.66,1.93,4.81,4.81-1.61,6.09-7,5.13L579,369.33l.32-4.49-7.69-2.56-6.89-3.21-8.82-9.3-4.81-6.09-1.6,7.05v10.9l.32,7.38-7,4.17-8.66,1-1.28-7.7,5.77-3.84,4.17-6.1,2.56-20.83.32-22.45.32-14.1-2.88-10.58-5.13-6.1-5.77-1.92-13.79-1-11.22-.64-7.38-.64-10.25-4.49-6.1-7.7-7.69-8.33-6.41-9.3L461,244.29l-9.3-3.2h-8.33l-8.34.64-3.52-3.21v-5.77l3.84-1.6,2.89-3.21,3.53-3.52,7.69-1.61,7.37,1Z"/><path class="cls-1" d="M719.19,235.42h-5.13l-3.84,4.28v4.7l1.71,3.42,7.26,1.28,8.13-2.13,6,2.13v19.67l3.42,10.68,5.56,5.56,10.68,4.7h10.26l9.41-3.85,4.7-4.27,4.7-6,2.57,10.25v11.55l-3.85,16.24-5.13,14.53-5.56,20.1L761.94,365l-9,2.13-5.55,3.42v6.84h10.68l11.12-3,7.26-14.53,8.13-24.37L791,314.51l5.13-15.82,4.7-3,3.42,10.68,4.27,20.52,9.84,21.8V365l-6,2.56s-4.7,6.41-4.7,7.7,7.69,3.84,7.69,3.84l10.69-3.84,2.57-12.4-3-12.82-5.13-25.65-2.56-17.1-1.28-14.11,12-2.56,7.69,1.28,12-2.14,9.83-7.27,5.56-4.7-3,11.12,3,8.12,6,3,2.57,10.69,2.14,9v13.25l-6,18.81-5.56,9.4-1.28,5.13-7.27,1.71-3.84,5.56,4.27,5.55h8.12l7.27-2.56,2.57-10.26,6.41-21,6.84-10.68L888,323.91l-2.56-8.55-1.28-11.54.42-5.56,9,4.7,5.56,8.55,6.84,12,6,15.82,4.28,15.39v12l-7.7,3.84L906,377.34l5.13,1.71H921l5.56-6.41L924,352.12l-3.42-13.25-.43-16.24-1.28-8.55-10.68-9-6.84-10.69s-2.57-18.8-2.57-20.51,0-18.81-.43-20.1S887.62,238,887.62,238l-10.26-9.83H865l-9-10.8-8.55-3.31L841,217.36l-4.7,3.1-1.71,6-2.56,3.42-4.28-1.71-4.27-6.84-5.13-5.56-10.26-1.71-7.27,5.13-5.56,7.27-9.4,7.69-3.42,7.27-6.41,10.68-4.28,7.27-7.69,1.28s-4.28-.85-4.7-2.13a41.22,41.22,0,0,1-.86-5.13s-.43-3-.43-4.28V244s.86-.42-.85-4.27l-1.71-3.85h0c-2.57-1.28-5.13-1.28-5.13-2.56s-1.71-4.71-1.71-4.71l-3-3c-2.14-1.71-6-1.71-7.27-1.71a22.94,22.94,0,0,0-3.42.43l-5.13,5.13h0c-1.71,2.56-6.41,3.85-6.41,3.85Z"/><path class="cls-1" d="M978.45,282.12h-3.84l-3.21,1.93h-3.53l-2.88,3.2v2.89l1.6,2.88H974l4.48,1,1.93,2.56v12l3.2,4.28,4.28,3.63,4.27,1.5h7.27l4.92-1.29,3.84-2.35,4.28-2.14,1.92,3.85v4.7l-3.2,6.63-4.28,13.89-2.56,9.19-1.29,6.2-3.2,6.63-1.07,4.27h-3.21l-2.13,3.42,1.71,2.78h5.13l5.13-1.71.42-5.13L1008,359l2.14-8.12,4.27-8.55,1.71-6.2,1.07-6.62,1.92-4.92,3-1.71,1.92,3,1.07,6V338l2.78,6,2.35,3.63,2.56,6,1.5,4.7v7.27l-2.57,1.28-3,2.57-1.28,3,2.14,2.35h4.7l4.7-4.92V358.53l-2.35-9-3-15,.21-4.06,1.07-6,4.06-3.63,7.7-.22,4.91-1.28,4.28-1.92a28.1,28.1,0,0,1,3.42-2.57,27.55,27.55,0,0,1,4.48.22v2.56l1.5,4.28,3.42,5.13,1.07,8.55v8.54l-2.14,8.13-3.2,5.34-2.36,6.63-3.2,3-3.21,1.71-2.13,2.78,4.06,3,7-1.71,3.63-5.13,1.5-6.63,3.42-8.12,3.85-4.91v-6.2l-2.35-6.63-.86-4.91-.64-6.2,2.14-6.41,3.42,8.76,2.56,4.91,3.63,5.78,6.84,10.9,2.78,7.48V366l-3.2,2.13-1.93,3.42,2.78,1.93,5.34-.65,3.42-3v-6L1097.29,347l-.85-4.91-.43-5.56-.43-3.42-1.92-2.35-1.93-2.3-3.63-2.4-3.42-4.49-1.28-6s1.07-6.84,1.07-7.48a46.88,46.88,0,0,1,1.49-4.91l-.42-5.13-1.93-5.77-5.77-6-8.33-5.77-6.2-3.63-8.34-2.57h-3.63l-3.42-1.92-3.85-2.35-2.35-1.07h-5.13l-3.63,1.71-3,3-4.7,6.84-3.63,4.06-5.34,5.13-6.63,5.77-6.63,5.35-3.2.85h-3.21a6.32,6.32,0,0,1-1.49-1.71,14,14,0,0,1-.43-3v-2.14s1.49-5.56,1.49-6.2a26.68,26.68,0,0,0-1.28-3.84l-1.71-4.49-1.49-1.71-2.57-1.07-3.2-.21L983.37,279l-.64,2.13-2.35.64Z"/><path class="cls-1" d="M644.39,265.77s23.08,5.13,77.37-22.65h6.84S688,272.19,642.68,270.48Z"/><path class="cls-1" d="M898.24,296.55s24.43,8.66,84.7-5.77l5.45,1s-48.19,18.31-92.61,9.16Z"/><path class="cls-1" d="M353.71,339.3l-.86-11.12.43-8.12-2.14-6.84-3.42-8.12-.43-7.27a21,21,0,0,0-3.41-4.7l-2.57-1.28v-4.7l3-3,1.28-3.84L343,275.18l-3.85-2.57h-6l-4.28,2.57-2.56,5.13v5.13l2.56,3.42h3.42l2.35,2.56v3.85c-3.2,1.71-5.77,6.55-5.77,6.55l-.85,6.7.43,7.27-2.14,9.4,2.56,9.83-2.56,4.71s-4.7,3.84-5.13,5.13-2.57,9-2.57,9V359l3.12,2.18-.39,1.78-1.76,2.72-4.49,1.28h-3.85s-3.53-.48-4,0-2.56,2.41-2.56,2.41l.8,2.08,3.21,1.12h14.9l1.77-2.08v-3.69l.8-4.81h22.44v3.93l-3.69,3.61h-2.88l-4,1.76-.8,3.53,4.81,2.4,7.59-1,3.84-4.92,2.83-3.74v-2.67l-1.44-.8-1.92-.32-.6-2.42,4.77-1.06,3-4.7v-6Z"/><path class="cls-1" d="M341.74,299.12s29.49-2.25,57.39-15.07,39.75-31.74,43.92-45.21h3.85S440.48,270.9,406.5,285a290.31,290.31,0,0,1-64.76,18.27Z"/><path class="cls-7" d="M334,297.67s-9.29-5.13-12.18,0,1,9.94,8,10.58l2.53-2.88s-9,.64-7-3.85,8.65-1.46,8.65-1.46Z"/><path class="cls-1" d="M337.37,300.4s-11.52.64-14.73,4.81-1.93,7.37,3.21,7.37,11.54-1,13.15-4.17S337.37,300.4,337.37,300.4Z"/><path class="cls-4" d="M1394.49,305.13c-23.37,1.39-50.85,3.19-83.17,5.49-236.68,16.83-83.2,45.92,0,50.95,47.28,2.85-70.7,49.68-48.72,57.74,41.1,15.08,96.24,12.75,131.89,10.69Z"/></g></svg>