<svg xmlns="http://www.w3.org/2000/svg" viewBox="0 0 87.51 124.53"><defs><style>.cls-1{fill:#231f20;}.cls-2{fill:#d9b228;fill-rule:evenodd;}.cls-3{fill:#fff;}</style></defs><title>Logo ISMA Shah Alam</title><g id="Layer_2" data-name="Layer 2"><g id="Layer_1-2" data-name="Layer 1"><rect class="cls-1" width="87.51" height="108.34"/><path class="cls-2" d="M57.14,101.34Z"/><path class="cls-2" d="M29.64,98.85a1.36,1.36,0,0,1,0,.2,4.9,4.9,0,0,0-.05-1.79c0-.06,0-.13,0-.19a5.89,5.89,0,0,0-2.68-3.77,16.59,16.59,0,0,0-3.48-1.66A6.76,6.76,0,0,1,20.78,90a2.29,2.29,0,0,1-.7-1.43,2.63,2.63,0,0,1,3.4-2.74,4.69,4.69,0,0,1,2.37,1.66,10.17,10.17,0,0,1,1.37,2.26.26.26,0,0,0,.36.18c.34-.09.69-.17,1-.23.17,0,.2-.1.17-.26-.09-.49-.17-1-.26-1.48a23.65,23.65,0,0,0-.77-3.09.49.49,0,0,0-.29-.35A9.45,9.45,0,0,0,24,83.84a3.78,3.78,0,0,0-1.21,0,8.13,8.13,0,0,0-4.51,1.41,6.05,6.05,0,0,0-2.76,5.41,5.11,5.11,0,0,0,2.06,3.88A12.46,12.46,0,0,0,21,96.49a11.28,11.28,0,0,1,2,1A4.48,4.48,0,0,1,24.45,99a2.88,2.88,0,0,1-2,4.27,3.89,3.89,0,0,1-3-.84,9.38,9.38,0,0,1-3.11-4.09c-.11-.25-.14-.6-.33-.74s-.55,0-.83,0c-.51,0-.45,0-.43.46a27.81,27.81,0,0,0,.6,4.9c0,.1.12.25-.11.23a8.94,8.94,0,0,1-1.86-.32,1.32,1.32,0,0,1-.94-1.06,7.69,7.69,0,0,1-.12-1.66v-16a2.81,2.81,0,0,0,0-.29c0-.07-.07-.06-.12,0h0l-.31,0c-2.12.48-4.25.94-6.39,1.31a10.86,10.86,0,0,0-1.61.29,5.67,5.67,0,0,0,0,.92c0,.22,0,.31.28.33A10.56,10.56,0,0,1,5.82,87a1.22,1.22,0,0,1,1,1.14,8.29,8.29,0,0,1,.08,1.11v11.12a9.45,9.45,0,0,1-.07,1.18,1.45,1.45,0,0,1-1.13,1.34c-.39.11-.79.13-1.19.23a2.58,2.58,0,0,0-.68.08,5.55,5.55,0,0,0-.06,1.22c0,.21.07.24.26.24H15.24c.2,0,.25-.06.24-.25,0-.34,0-.69,0-1a9.13,9.13,0,0,0,5,1.81.75.75,0,0,1,.21,0l-.21,0a6.71,6.71,0,0,0,1.79,0,2.31,2.31,0,0,0,.69-.06,8.86,8.86,0,0,0,4.62-2,5.7,5.7,0,0,0,2.09-4.08A.68.68,0,0,1,29.64,98.85Zm-14.72,5.76h.21A.74.74,0,0,1,14.92,104.61Zm.49-.32v0Z"/><path class="cls-2" d="M3.47,82.84a.59.59,0,0,0,.26,0H83.35c.13,0,.28,0,.4-.05a1,1,0,0,0,0-.38V3.26c0-.18-.09-.18-.22-.15h-.38q-39.68,0-79.36,0l-.41,0c-.11.09,0,.22,0,.33q0,39.53,0,79.05a.67.67,0,0,0,0,.23A.12.12,0,0,0,3.47,82.84ZM5.29,4.67h29l.38,0,0,0,0,0a.49.49,0,0,1-.26.1,39.17,39.17,0,0,0-18.28,9.85,38.79,38.79,0,0,0-11.1,18.9.53.53,0,0,1-.11.21s0-.1,0-.16Q5,19.29,5,5c0-.11,0-.23,0-.33Zm47.19,0H82.14l0,.06h0c0,.13,0,.26,0,.38V33.16c0,.21,0,.43,0,.64-.11,0-.1-.09-.12-.16a38.85,38.85,0,0,0-9.94-17.83A39.31,39.31,0,0,0,54.24,5.19c-.53-.15-1.07-.27-1.6-.41-.1,0-.21,0-.28-.12ZM43.82,77.91c-.79,0-.79,0-.79.79,0,.64,0,1.28,0,1.92,0,.22-.07.26-.27.26A38.24,38.24,0,0,1,24.88,76a.37.37,0,0,1-.22-.37V62.85a2.85,2.85,0,0,1,0-.29c.58-.53.55-.33,0-.86,0-.12,0-.25,0-.38V43.94c0-.12,0-.24,0-.35.71,0,.71,0,.72-.68v-.16c0-.17-.05-.21-.21-.21a1,1,0,0,1-.56,0h0a0,0,0,0,1,0,0c0-.13,0-.25,0-.38,0-2.66,0-5.33,0-8a23,23,0,0,1,.1-3.42c.15-1,.2-2,.36-3.05a33.08,33.08,0,0,1,3.35-10.37c.79-1.51,1.85-2.85,2.72-4.32a2.3,2.3,0,0,1,.51-.57A1.37,1.37,0,0,0,32,12.1a8.68,8.68,0,0,1,2.13-2.35,1.48,1.48,0,0,0,.3-.25A14.85,14.85,0,0,1,38,6.86l0,0a11.55,11.55,0,0,1,5-1.1c0,.55,0,1.09,0,1.63,0,.82,0,.81.8.81.22,0,.27-.07.27-.27,0-.72,0-1.45,0-2.17a9.73,9.73,0,0,1,1.08,0,9.15,9.15,0,0,1,4,1,27.79,27.79,0,0,1,2.67,1.66A17.12,17.12,0,0,1,55,11.49,18.79,18.79,0,0,0,56.19,13a11.17,11.17,0,0,1,1.45,2.42c.23.41.42.85.65,1.27s.45.8.65,1.21a33.63,33.63,0,0,1,3.32,11.86c.05.59.21,1.18.22,1.75.05,3.59,0,7.18,0,10.77,0,.1,0,.21,0,.3s-.4,0-.6,0-.24.07-.24.26c0,.83,0,.83.83.78.09.12,0,.25,0,.37q0,8.88,0,17.75c-.17.17-.44.32-.47.5s.29.33.44.51l0,0c0,.12,0,.25,0,.38q0,6.18,0,12.36c0,.11,0,.23,0,.35a29.79,29.79,0,0,1-3.47,1.77,38.27,38.27,0,0,1-11.61,3.07c-1,.1-2,.15-3.06.19-.23,0-.29-.06-.29-.29,0-.79,0-1.59,0-2.39C44.1,78,44.05,77.9,43.82,77.91ZM33,81.28H25c-.26,0-.34-.07-.34-.34,0-1,0-2,0-3,0-.2,0-.24.23-.14a38.69,38.69,0,0,0,8.63,3.35l.09,0v0Zm29.34-.39c0,.14,0,.28.13.37l-.38,0H53.69a.37.37,0,0,1-.22,0l1.09-.3a39.66,39.66,0,0,0,7.69-3.1l.26-.1a.56.56,0,0,0-.14.41C62.37,79.06,62.36,80,62.38,80.89Zm-9,.46h9.15s0,0,0,.06H53.37Zm28.5-.07H64.53c-.26,0-.31-.09-.31-.33q0-2,0-4a.43.43,0,0,1,.23-.43A38.32,38.32,0,0,0,71,71.51a39,39,0,0,0,11-18.92.77.77,0,0,1,.12-.26c0,.22,0,.43,0,.64V80.89c0,.1,0,.21,0,.32S82,81.28,81.87,81.28Zm-12-65.46c.18.17.18.26,0,.44-.56.53-1.11,1.09-1.66,1.63-.13.12-.16.2,0,.32s.39.5.6.53.39-.32.58-.51c.42-.42.85-.83,1.26-1.26.16-.17.24-.15.39,0a37.78,37.78,0,0,1,6.68,9.46,37,37,0,0,1,3.71,12.9c.09.93.14,1.87.18,2.8,0,.31,0,.43-.39.41-.8,0-1.61,0-2.42,0-.06,0-.11,0-.11.07,0,.28,0,.55,0,.83s.1.13.2.13h2.67c.11.12.06.26.05.39a37.26,37.26,0,0,1-8.5,23c-.65.8-1.35,1.56-2.06,2.31-.18.19-.28.24-.48,0-.54-.57-1.12-1.11-1.67-1.67-.14-.15-.23-.18-.37,0S68,68,68,68.15s.32.38.51.57c.43.43.85.87,1.3,1.28.21.19.17.28,0,.46a38.5,38.5,0,0,1-5.57,4.36c0-.19,0-.38,0-.57v-43a.78.78,0,0,0,0-.4h0a.41.41,0,0,1-.08-.24,41.37,41.37,0,0,0-.88-6.26l1-1c.06-.06.14-.11,0-.21s-.41-.5-.68-.6-.33.29-.52.45l-.08.09c-.1-.06-.09-.17-.11-.26a35.68,35.68,0,0,0-1.11-3.46A28.68,28.68,0,0,0,55.49,9.32,18.35,18.35,0,0,0,51.6,6.25c.07-.12.17,0,.25,0A38,38,0,0,1,69.9,15.82ZM35.41,6.3a20.48,20.48,0,0,0-4,3.25,28.73,28.73,0,0,0-6,9.69,28.79,28.79,0,0,0-1.21,3.86C24.05,23.26,24,23,24,23c-.44-.41-.43-.42-.85,0s-.33.33,0,.66.4.38.59.58.21.15.19.3a39,39,0,0,0-.72,4.41c-.07.6-.06,1.21-.18,1.8,0,.14,0,.28,0,.41V67.77q0,3.53,0,7c-.12,0-.2-.08-.28-.13a40.18,40.18,0,0,1-5.44-4.28c-.2-.19-.15-.28,0-.44.58-.55,1.14-1.12,1.71-1.68.13-.13.17-.21,0-.35s-.38-.48-.59-.5-.39.31-.57.49c-.44.43-.88.85-1.29,1.29-.18.19-.28.2-.47,0a38,38,0,0,1-5.66-7.57A37.27,37.27,0,0,1,6,49.27a35,35,0,0,1-.49-5.4c0-.1,0-.19,0-.29H8.16c.08,0,.23,0,.23-.06a2,2,0,0,0-.07-1c-.82,0-1.64,0-2.46,0-.31,0-.38-.07-.37-.38a37.33,37.33,0,0,1,7.9-22.12A40.07,40.07,0,0,1,16,17c.15-.16.23-.17.39,0,.55.56,1.12,1.11,1.67,1.67.13.13.21.18.34,0s.54-.37.52-.6-.33-.39-.52-.58c-.41-.41-.81-.82-1.23-1.21-.17-.16-.21-.25,0-.44A38.41,38.41,0,0,1,27.17,9a36.45,36.45,0,0,1,8-2.75ZM4.94,52.59v-.15c.12.08.11.2.14.3a39.09,39.09,0,0,0,9.77,17.54c.11.12.39.21.13.46,0,.05,0,.1.07.13l.54.54c.05.06.11.12.18,0s.19-.06.28,0a39.74,39.74,0,0,0,6.8,5.22l.1.07v.1a1.2,1.2,0,0,0,0,.2c0,1.39,0,2.77,0,4.15v.05H5.34c-.33,0-.4-.09-.4-.4Q5,66.73,4.94,52.59Z"/><path class="cls-2" d="M65.22,103.2a14.29,14.29,0,0,1-1.56-.3,1.28,1.28,0,0,1-.89-1,4.34,4.34,0,0,1-.11-1c0-3.54,0-7.07,0-10.6a4,4,0,0,0,0-1v-.17a5.44,5.44,0,0,0-5.36-5.31,3.07,3.07,0,0,0-1.09,0,2.39,2.39,0,0,0-.66.07,6.43,6.43,0,0,0-2,.85c-1.18.72-2.3,1.51-3.4,2.33-.22.17-.29.12-.39-.11a4.86,4.86,0,0,0-1.34-1.8,6,6,0,0,0-6.89-.52c-1.09.68-2.16,1.4-3.21,2.15-.1.08-.22.15-.36.25a2.2,2.2,0,0,1,0-.23c0-.92,0-1.85,0-2.78,0-.2,0-.26-.24-.2s-.46.1-.69.15c-2.38.52-4.75,1.06-7.17,1.38-.23,0-.32.1-.29.34a3.75,3.75,0,0,1,0,.67c0,.23.07.31.29.33a8.88,8.88,0,0,1,1.61.27,1.21,1.21,0,0,1,.92,1.06,8.73,8.73,0,0,1,.07,1.25c0,3.58,0,7.17,0,10.76a11.19,11.19,0,0,1-.06,1.53,1.46,1.46,0,0,1-1.14,1.31c-.41.11-.83.13-1.25.23h-.1a2,2,0,0,0-.48,0l-.06,0c-.18,0-.17.08-.17.19,0,.33,0,.66,0,1s.07.3.3.29c1.76,0,3.51,0,5.26,0s3.36,0,5,0c.23,0,.3-.06.29-.28s0-.66,0-1c0-.08.05-.21-.11-.21l-.19,0c-1.44-.23-1.79-.58-1.8-2.05,0-4,0-7.92,0-11.88,0-.1,0-.19.08-.26a6.23,6.23,0,0,1,3.8-1.63,2.69,2.69,0,0,1,2.77,2,5.1,5.1,0,0,1,.25,1.6v9.29a12,12,0,0,1-.06,1.47A1.34,1.34,0,0,1,43.53,103l-.59.13a1.62,1.62,0,0,1-.22,0c-.31,0-.41.11-.38.42a4.17,4.17,0,0,1,0,.79c0,.25,0,.33.31.33,1.6,0,3.19,0,4.79,0h4.94c.22,0,.3-.06.28-.28s0-.66,0-1c0-.1,0-.23-.15-.21-.35-.07-.71-.12-1.06-.21a1.31,1.31,0,0,1-1.13-1.28,9.39,9.39,0,0,1-.08-1.4V89.82a1.68,1.68,0,0,0-.05-.63v-.11a8.29,8.29,0,0,1,2.93-1.63A2.94,2.94,0,0,1,57,89.83a5.74,5.74,0,0,1,.13,1.24c0,1.79,0,3.58,0,5.36,0,1.58,0,3.15,0,4.73h0a1.09,1.09,0,0,1,0,.18h0c0,.08,0,.16,0,.24A1.37,1.37,0,0,1,55.83,103c-.33.08-.67.13-1,.19-.13,0-.09.12-.09.2,0,.3,0,.61,0,.92s.06.36.35.36c2.82,0,5.63,0,8.45,0,.53,0,1.06,0,1.59,0,.18,0,.25,0,.24-.23,0-.34,0-.68,0-1C65.36,103.33,65.41,103.19,65.22,103.2Zm-8-2.1Zm-.09.29h0Z"/><path class="cls-2" d="M84.33,102.37c-.13-.31-.25-.62-.35-.93s-.15-.2-.32-.13a4.37,4.37,0,0,1-1.06.34,1.07,1.07,0,0,1-1.35-.71c0-.13-.09-.26-.13-.4a8.32,8.32,0,0,1-.18-1.13l0,.44a.47.47,0,0,1,0-.32v-10a.7.7,0,0,1,.06-.4,3.8,3.8,0,0,0-.1-1.11,4.72,4.72,0,0,0-3.14-3.65,6.31,6.31,0,0,0-3.15-.49,14,14,0,0,0-3.53,1,15.49,15.49,0,0,0-4.55,2.6,4,4,0,0,0-1,1.27,1.6,1.6,0,0,0,.26,2,3.42,3.42,0,0,0,1.93,1,1.58,1.58,0,0,0,2-1.36,8.15,8.15,0,0,1,1.13-3,2.44,2.44,0,0,1,3-1,2.71,2.71,0,0,1,1.77,2.28,18.06,18.06,0,0,1,.08,2.55c0,.15-.11.19-.2.25a13.7,13.7,0,0,1-1.47.77c-1.87.88-3.8,1.62-5.7,2.43a6.5,6.5,0,0,0-1.86,1.15,4.34,4.34,0,0,0-1.45,3,3.93,3.93,0,0,0,0,1.28.62.62,0,0,0,0,.19,5.79,5.79,0,0,0,3.75,4.59,3.49,3.49,0,0,0,3.43-.31c1.09-.74,2.2-1.46,3.29-2.19.08,0,.14-.14.25-.13s.07.19.1.28.06.18.1.27a3.54,3.54,0,0,0,3.39,2.4.6.6,0,0,0,.37-.06l4.59-2.51C84.38,102.59,84.38,102.51,84.33,102.37Zm-8.7-2.12a.54.54,0,0,1-.23.48,7,7,0,0,1-1.46.89,1.84,1.84,0,0,1-1.83-.17,3.34,3.34,0,0,1-1.54-2.6,3.64,3.64,0,0,1,2-3.79c.92-.51,1.82-1.06,2.73-1.59a.84.84,0,0,1,.32-.14.45.45,0,0,1,0,.28Zm.11.21h0v-7h0Z"/><path class="cls-2" d="M43,45.55c0,.75,0,.76.78.7.24,0,.3-.11.29-.34,0-.45,0-.9,0-1.35l.09-.05.69.73c.54.54.53.53,1.06,0,.17-.18.16-.28,0-.45-.38-.36-.74-.75-1.16-1.17H46c.75,0,.74,0,.71-.74,0-.25-.1-.32-.35-.31-.47,0-.94,0-1.42,0l0-.07.76-.72c.56-.55.55-.54,0-1.06-.16-.14-.26-.16-.41,0-.36.38-.73.73-1.16,1.15,0-.24,0-.4,0-.55a7.91,7.91,0,0,0,0-1.29h0a1.54,1.54,0,0,0-.74-.07c-.21,0-.3.07-.29.3,0,.53,0,1.07,0,1.61l-.11.06c-.28-.31-.56-.63-.85-.93-.47-.47-.47-.46-.93,0-.21.23-.23.37,0,.58s.63.61,1,1H40.54s-.11,0-.12,0a2.09,2.09,0,0,0,0,.93c0,.11.11.08.18.08h1.68c0,.12-.09.16-.15.23l-1,1c-.06.06-.19.11-.09.23s.39.53.68.6.31-.25.47-.39.26-.27.41-.4a1.35,1.35,0,0,1,.44-.37Z"/><path class="cls-2" d="M43,15.59v.28c0,.83,0,.82.83.81.18,0,.24-.05.24-.24,0-.38,0-.76,0-1.14,0-.87,0-.87-.88-.81-.15,0-.2,0-.2.2C43,15,43,15.29,43,15.59Z"/><path class="cls-2" d="M44.09,24.09v-.28c0-.85,0-.85-.83-.81h0c-.15,0-.2.06-.2.21,0,.38,0,.76,0,1.14,0,.85,0,.85.85.82.17,0,.22-.06.22-.22S44.09,24.38,44.09,24.09Z"/><path class="cls-2" d="M43.88,29.24c.17,0,.22-.06.22-.22s0-.57,0-.86v-.28c0-.85,0-.85-.83-.81h0c-.15,0-.2.06-.2.21,0,.38,0,.76,0,1.14C43,29.28,43,29.27,43.88,29.24Z"/><path class="cls-2" d="M44.09,37a1.62,1.62,0,0,0,0-.22V36.4c0-.82,0-.82-.84-.75h0c-.16,0-.2.08-.2.22,0,.59,0,1.17,0,1.76,0,.15.06.2.21.19s.63.09.8,0S44.07,37.25,44.09,37Z"/><path class="cls-2" d="M50.75,49.57l-.13-.11-.12.11c-.17.16-.33.34-.5.49s-.11.17,0,.27l.84.83c.62.61.61.61,1.19,0,.1-.11.1-.18,0-.28Z"/><path class="cls-2" d="M44.1,66.32v-.45c0-.6,0-.6-.59-.6h-.26c-.19,0-.23.06-.23.24,0,.37,0,.74,0,1.11,0,.81,0,.81.8.78,0,0,.05,0,.07,0s.2-.06.2-.21S44.1,66.61,44.1,66.32Z"/><path class="cls-2" d="M43,53.92c0,.83,0,.83.83.79.17,0,.25-.05.24-.24s0-.57,0-.86a2.09,2.09,0,0,0,0-.25c0-.26.12-.6-.06-.77s-.46,0-.7,0h0c-.2-.05-.28,0-.27.25S43,53.55,43,53.92Z"/><path class="cls-2" d="M36.65,49.66c-.17-.23-.29-.18-.45,0s-.48.48-.72.72c-.61.61-.61.61,0,1.18.11.09.17.12.28,0l1.27-1.26.11-.13-.12-.12A3.87,3.87,0,0,1,36.65,49.66Z"/><path class="cls-2" d="M61.05,59.78c-.27-.23-.5-.5-.75-.74s-.37-.52-.58-.5-.4.35-.61.53-.14.17,0,.29c.42.4.82.81,1.23,1.21a1.79,1.79,0,0,0,.14.13.5.5,0,0,0,.13-.11c.15-.14.28-.29.44-.42S61.22,59.93,61.05,59.78Z"/><path class="cls-2" d="M56.48,30.59a3.16,3.16,0,0,1,.18.27l.23-.21c.28-.27.55-.55.83-.83.62-.61.62-.6,0-1.18-.12-.1-.18-.1-.29,0-.29.3-.6.6-.9.9s-.44.32-.46.5S56.33,30.39,56.48,30.59Z"/><path class="cls-2" d="M53.87,54.16c.62.63.62.63,1.2-.08l.09-.12L55,53.81l-.77-.76c-.19-.19-.37-.54-.59-.52s-.4.35-.6.53-.13.18,0,.3C53.33,53.62,53.59,53.89,53.87,54.16Z"/><path class="cls-2" d="M59.64,27.61c.11.13.18.14.3,0,.4-.41.82-.81,1.22-1.22,0,0,.11-.07.1-.16a.48.48,0,0,0-.09-.11c-.15-.15-.3-.28-.43-.43s-.23-.18-.38,0-.5.49-.74.74-.53.37-.51.57S59.46,27.41,59.64,27.61Z"/><path class="cls-2" d="M27.34,27.78c.2,0,.4-.35.6-.53s.13-.18,0-.3c-.42-.4-.82-.81-1.23-1.22l-.13-.11a.58.58,0,0,0-.12.1l-.5.49c-.11.1-.12.18,0,.28l.77.76C26.94,27.45,27.15,27.78,27.34,27.78Z"/><path class="cls-2" d="M40.08,47.08c-.18-.16-.35-.34-.52-.51s-.06-.09-.15-.08a1.36,1.36,0,0,1-.12.12l-.79.79c-.62.61-.62.61.06,1.17.11.09.18.1.28,0,.41-.42.83-.83,1.24-1.23C40.18,47.24,40.2,47.18,40.08,47.08Z"/><path class="cls-2" d="M43.87,12.39c.19,0,.23-.07.23-.24,0-.44,0-.88,0-1.31s0-.55-.55-.55-.51,0-.51.49v.8C43,12.41,43,12.41,43.87,12.39Z"/><path class="cls-2" d="M43,20.09c0,.85,0,.85.86.8.16,0,.21-.05.21-.2s0-.55,0-.83v-.28c0-.85,0-.84-.85-.8-.16,0-.22.06-.22.23C43,19.37,43,19.73,43,20.09Z"/><path class="cls-2" d="M38,38.44c.3.27.57.57.86.85s.31.43.51.43.3-.26.45-.41l.14-.13c.14-.1.14-.18,0-.29l-1.26-1.26-.13-.11-.15.12-.43.43C37.87,38.2,37.84,38.29,38,38.44Z"/><path class="cls-2" d="M36.47,36.62a4.17,4.17,0,0,1,.47-.47c.12-.11.11-.18,0-.28l-1.2-1.19-.15-.12-.13.11c-.16.16-.31.33-.48.48s-.1.19,0,.3c.4.38.8.77,1.18,1.17C36.28,36.73,36.35,36.76,36.47,36.62Z"/><path class="cls-2" d="M33.54,52.57c-.12-.13-.18-.08-.28,0L32,53.82c-.11.11-.16.18,0,.3s.33.31.48.47.17.11.28,0c.42-.43.86-.85,1.29-1.28l.12-.15L34,53.07A5.78,5.78,0,0,1,33.54,52.57Z"/><path class="cls-2" d="M57.33,57.6l.13.11.15-.13a6.2,6.2,0,0,1,.45-.44c.15-.13.12-.21,0-.33s-.51-.5-.77-.76-.41-.54-.59-.52-.41.36-.63.54-.1.17,0,.28C56.49,56.76,56.91,57.18,57.33,57.6Z"/><path class="cls-2" d="M43.27,33.54a2.72,2.72,0,0,1,.57,0c.2,0,.27,0,.26-.24,0-.35,0-.7,0-1.06,0-.85,0-.85-.86-.79-.17,0-.21.08-.21.24s0,.53,0,.79,0,.54,0,.8S43.05,33.57,43.27,33.54Z"/><path class="cls-2" d="M53.59,33.64c.1.14.19.11.3,0,.38-.39.78-.77,1.17-1.16l.13-.15-.1-.13c-.17-.16-.34-.32-.5-.49s-.18-.1-.28,0c-.28.29-.57.57-.86.85-.46.46-.46.46,0,.92A1.14,1.14,0,0,1,53.59,33.64Z"/><path class="cls-2" d="M29,29.49c.24.25.49.5.74.74.63.62.62.62,1.23,0,.1-.11.08-.16,0-.26l-1.22-1.2-.14-.12-.07,0-.61.61C28.81,29.38,28.94,29.43,29,29.49Z"/><path class="cls-2" d="M27.55,58.52c-.11-.12-.17-.1-.28,0l-1,1c-.4.4-.4.4,0,.82a2.64,2.64,0,0,1,.28.36l.23-.19.75-.74c.19-.2.55-.42.53-.59S27.74,58.74,27.55,58.52Z"/><path class="cls-2" d="M43.89,61.08a5,5,0,0,1-.67,0c-.16,0-.2,0-.2.2,0,.36,0,.72,0,1.08,0,.85,0,.84.85.79.17,0,.22-.07.22-.23s0-.55,0-.83,0-.53,0-.79S44.07,61.07,43.89,61.08Z"/><path class="cls-2" d="M47.1,39.15a3.48,3.48,0,0,1,.47.47c.1.12.17.12.27,0,.34-.35.68-.68,1-1s.37-.36,0-.73l-.37-.36-.16.12c-.41.41-.83.83-1.25,1.23C47,39,47,39.05,47.1,39.15Z"/><path class="cls-2" d="M43.61,48.36a2.38,2.38,0,0,1-.38,0c-.16,0-.21,0-.21.19,0,.56,0,1.13,0,1.69,0,.36.3.22.44.2s.56.21.62-.2a5.75,5.75,0,0,0,0-.83v-.54C44.09,48.36,44.09,48.36,43.61,48.36Z"/><path class="cls-2" d="M38.24,42.78c0-.22-.07-.24-.25-.24H36.81c-.77,0-.77,0-.74.79,0,.19,0,.28.28.27s.55,0,.82,0h.26c.26,0,.6.12.76-.05S38.2,43,38.24,42.78Z"/><path class="cls-2" d="M44.09,70.31c0-.85,0-.84-.85-.81-.18,0-.22.06-.22.22s0,.51,0,.76v.29c0,.84,0,.83.85.79.17,0,.22-.07.22-.23C44.09,71,44.09,70.65,44.09,70.31Z"/><path class="cls-2" d="M32.76,33.23c.19.18.39.51.58.5s.38-.33.57-.51l.19-.14-.17-.2-.77-.76c-.6-.59-.59-.59-1.17,0-.12.13-.14.2,0,.33S32.51,33,32.76,33.23Z"/><path class="cls-2" d="M29.71,43.26a1.36,1.36,0,0,1,0-.45c0-.21,0-.28-.26-.27-.38,0-.76,0-1.15,0-.78,0-.77,0-.76.8,0,.19.05.27.25.26s.55,0,.83,0,.49,0,.74,0S29.76,43.56,29.71,43.26Z"/><path class="cls-2" d="M30.49,55.6c-.1-.12-.17-.11-.27,0s-.5.5-.74.75c-.61.6-.6.59.06,1.17.11.1.17.1.28,0,.38-.39.78-.78,1.17-1.17l.11-.12L31,56.1Z"/><path class="cls-2" d="M50.58,36.61c.1.12.17.14.29,0l1.2-1.19a1,1,0,0,0,.14-.15l-.11-.13c-.13-.13-.27-.26-.4-.41s-.27-.21-.45,0a8.61,8.61,0,0,1-.67.68c-.19.2-.53.4-.53.6S50.39,36.4,50.58,36.61Z"/><path class="cls-2" d="M47.05,47.4l1,.94c.36.36.36.36.74,0,.13-.12.27-.21.41-.32l-.2-.23c-.31-.32-.63-.63-1-.94s-.35-.35-.72,0a1.15,1.15,0,0,1-.23.21C46.86,47.18,46.91,47.27,47.05,47.4Z"/><path class="cls-2" d="M57.39,43.19a1.15,1.15,0,0,1,0,.19c0,.18.06.22.22.22h1.12c.84,0,.84,0,.78-.83,0-.17-.07-.22-.23-.22H58.06C57.39,42.54,57.39,42.54,57.39,43.19Z"/><path class="cls-2" d="M44.06,56.86h0a4.08,4.08,0,0,0-.78,0c-.2,0-.27,0-.26.24,0,.37,0,.75,0,1.12,0,.85,0,.85.84.8h.07c.1,0,.16,0,.15-.15C44.07,58.17,44.14,57.52,44.06,56.86Z"/><path class="cls-2" d="M53.27,42.54c-.13,0-.16.06-.16.18s0,.49,0,.73.11.14.2.14h1.05a2.17,2.17,0,0,0,.73-.06h0c.18-.11.15-.34.09-.9a.07.07,0,0,0-.08-.07Z"/><path class="cls-2" d="M32,43.59h1.88a1.86,1.86,0,0,0,0-1H32s-.12,0-.13,0c0,.29,0,.59,0,.89C31.84,43.61,31.94,43.59,32,43.59Z"/><path class="cls-2" d="M48.86,42.72a2.75,2.75,0,0,1,0,.64c0,.18,0,.24.21.24.35,0,.7,0,1.05,0,.94,0,.94,0,.83-1,0-.09-.1-.07-.16-.07H49C48.82,42.54,48.86,42.65,48.86,42.72Z"/><path class="cls-2" d="M44,73.68c-.26,0-.51,0-.77,0s-.2.06-.2.21c0,.35,0,.7,0,1,0,.94,0,.94,1,.86.11,0,.1-.08.1-.15v-1.8C44.09,73.76,44.1,73.67,44,73.68Z"/><path class="cls-2" d="M21.56,64.52c-.11-.15-.2-.14-.32,0-.3.31-.6.6-.91.9-.46.47-.46.47,0,.93a1.81,1.81,0,0,1,.22.32l.24-.21.88-.87c.47-.47.47-.47,0-.92Z"/><path class="cls-2" d="M21.13,21.69l.13.12a1.79,1.79,0,0,0,.14-.13c.15-.14.28-.29.43-.42s.18-.22,0-.37-.5-.49-.75-.74c-.6-.6-.6-.6-1.18,0-.11.11-.13.18,0,.3Z"/><path class="cls-2" d="M20.44,43.59c.87,0,.87,0,.8-.87,0-.14-.06-.18-.19-.18H19.3c-.15,0-.19.06-.19.19a2.81,2.81,0,0,1,0,.29c0,.57,0,.57.56.57h.77Z"/><path class="cls-2" d="M12.49,42.54H10.68s-.11,0-.12.07c0,.25,0,.51,0,.76s.06.22.22.21h1.73c.06,0,.16,0,.18-.08s0-.51,0-.76S12.65,42.54,12.49,42.54Z"/><path class="cls-2" d="M16.89,42.56h-2c-.19.31-.06.64-.07,1,0,.08.12.06.19.06h1.75c.07,0,.19,0,.19-.07C16.94,43.2,17.08,42.87,16.89,42.56Z"/><path class="cls-2" d="M66.32,66.52l.13.11a1.58,1.58,0,0,0,.15-.12c.15-.14.29-.3.45-.44s.14-.2,0-.33c-.41-.38-.81-.78-1.2-1.19-.11-.1-.18-.15-.31,0a4.17,4.17,0,0,1-.47.47c-.12.1-.12.17,0,.27Z"/><path class="cls-2" d="M65.68,21.63c.1.12.18.14.3,0,.39-.4.79-.79,1.19-1.19l.14-.15a1,1,0,0,0-.14-.15c-.14-.14-.29-.28-.42-.43s-.21-.16-.35,0-.49.48-.72.73-.55.37-.53.59S65.5,21.42,65.68,21.63Z"/><path class="cls-2" d="M70.43,43.59h1.69c.07,0,.19,0,.18-.06,0-.33.13-.66-.07-1l-1.8,0c-.17,0-.2.07-.19.21s0,.47,0,.7S70.34,43.59,70.43,43.59Z"/><path class="cls-2" d="M66,42.62a2.59,2.59,0,0,0,0,1H67.9c.07,0,.19,0,.18-.07,0-.32.12-.65-.06-1l-.11,0,.11,0H66.16C66.09,42.55,66,42.52,66,42.62Z"/><path class="cls-2" d="M74.48,43.45c0,.19.1.14.2.14h1.11c.88,0,.89,0,.79-.9,0-.09,0-.15-.13-.13H74.6q-.16,0-.12.12Z"/><path class="cls-2" d="M76.63,10.74c.12.12.19.15.33,0L78.4,9.31l.13-.14L78.4,9A4.64,4.64,0,0,1,78,8.63c-.16-.18-.27-.2-.44,0-.31.34-.65.65-1,1C76,10.17,76,10.17,76.63,10.74Z"/><path class="cls-2" d="M73.23,13.87l.29.27.17-.16,1-1c.6-.6.6-.59,0-1.18-.12-.11-.19-.12-.31,0-.37.39-.76.77-1.15,1.15S72.76,13.4,73.23,13.87Z"/><path class="cls-2" d="M80,7.71l.19-.18c.27-.26.54-.52.8-.79s.53-.36.51-.57-.35-.39-.53-.6-.21-.11-.33,0l-.88.88c-.46.46-.46.46,0,.93A2.05,2.05,0,0,1,80,7.71Z"/><path class="cls-2" d="M12,12.63l1.13,1.12c.46.46.46.46.93,0a2.55,2.55,0,0,1,.31-.24,2.44,2.44,0,0,0-.19-.21l-1-1c-.19-.19-.37-.5-.57-.52s-.39.35-.61.52S11.86,12.51,12,12.63Z"/><path class="cls-2" d="M9.75,10.4c.63.62.62.62,1.21-.07.09-.11.07-.17,0-.26L9.46,8.62a1.79,1.79,0,0,0-.14-.13l-.13.11c-.15.15-.29.31-.45.45s-.17.2,0,.34C9.08,9.71,9.41,10.06,9.75,10.4Z"/><path class="cls-2" d="M5.69,6.38c.28.24.52.52.78.76s.37.55.6.52.4-.35.61-.54.13-.15,0-.27c-.45-.43-.88-.87-1.32-1.3l-.13-.11-.12.11c-.14.13-.27.28-.41.4S5.49,6.21,5.69,6.38Z"/><path class="cls-2" d="M76.87,75.48l-.15-.13-.12.11c-.17.16-.33.34-.5.49s-.1.18,0,.28c.36.34.7.69,1.05,1,.2.18.37.54.6.51s.39-.35.6-.53.11-.19,0-.3Z"/><path class="cls-2" d="M73.61,72.25l-.15-.13-.15.14c-.15.15-.29.3-.45.44s-.13.19,0,.31c.35.32.68.67,1,1,.19.19.36.54.59.51s.4-.35.61-.53.12-.17,0-.28Z"/><path class="cls-2" d="M81.4,80c-.27-.27-.53-.54-.81-.8s-.37-.55-.6-.52-.39.34-.6.53-.13.18,0,.3c.36.34.71.69,1.06,1.05s.36.35.73,0c.12-.12.25-.23.35-.32A.28.28,0,0,0,81.4,80Z"/><path class="cls-2" d="M7,78.81c.24.17.4.49.65.61a3.51,3.51,0,0,0,2.16.36,3.34,3.34,0,0,0,2.52-4.51c0-.1-.16-.22-.05-.32s0-.22-.06-.3q-.39-.37-.81-.72A3.31,3.31,0,0,0,6.1,77.49,2.45,2.45,0,0,0,7,78.81Z"/><path class="cls-2" d="M12.87,74.3l.2-.18c.18-.18.37-.36.54-.54s.54-.37.51-.57-.35-.4-.53-.6-.19-.14-.31,0-.43.44-.65.66c-.46.45-.46.45,0,.92C12.72,74.07,12.78,74.19,12.87,74.3Z"/><path class="cls-2" d="M6.53,80.6c.62-.61.62-.68-.09-1.21l-.13-.1c-.13.14-.24.28-.37.4-.45.45-.45.45,0,.9C6.24,80.89,6.24,80.89,6.53,80.6Z"/><polygon class="cls-2" points="44.05 39.99 44.05 39.99 44.05 40 44.05 39.99 44.05 39.99 44.05 39.99 44.05 39.99 44.05 39.99"/><polygon class="cls-2" points="44.06 56.86 44.06 56.86 44.06 56.86 44.06 56.86 44.06 56.86 44.06 56.86 44.06 56.86 44.06 56.86"/><path class="cls-3" d="M12,116.31c0-1-.08-2-1.25-2-.71,0-1.17.29-1.17,1.06s.55,1.2,1.22,1.63a19.8,19.8,0,0,1,2.59,1.87,3,3,0,0,1,1,2.39c0,2.17-1.43,3.29-3.51,3.29-2.56,0-3.47-1.43-3.47-3.47v-.84H9.45v.67c0,1.11.29,1.92,1.34,1.92a1.18,1.18,0,0,0,1.32-1.34,1.74,1.74,0,0,0-.85-1.51c-1.11-.86-2.5-1.49-3.36-2.63a3.18,3.18,0,0,1-.55-1.75c0-2,1.09-3,3.35-3,3.39,0,3.3,2.61,3.32,3.74Z"/><path class="cls-3" d="M15.93,124.26V112.84h2.13v4.52h3v-4.52h2.13v11.42H21.05V119h-3v5.22Z"/><path class="cls-3" d="M24.2,124.26l2.72-11.42H29.8l2.59,11.42H30.11l-.57-2.9H27.05l-.57,2.9Zm3.18-4.57h1.83l-.58-3.24c-.11-.54-.15-1-.21-1.59,0-.25-.05-.51-.08-.76h0c0,.25-.06.51-.08.76-.06.54-.1,1-.21,1.59Z"/><path class="cls-3" d="M33.42,124.26V112.84h2.13v4.52h3v-4.52h2.13v11.42H38.54V119h-3v5.22Z"/><path class="cls-3" d="M45.36,124.26l2.72-11.42H51l2.59,11.42H51.26l-.56-2.9H48.2l-.56,2.9Zm3.18-4.57h1.83l-.58-3.24c-.11-.54-.15-1-.22-1.59,0-.25,0-.51-.07-.76h0c0,.25-.06.51-.08.76-.06.54-.1,1-.21,1.59Z"/><path class="cls-3" d="M54.58,124.26V112.84h2.13v9.74h4v1.68Z"/><path class="cls-3" d="M61.16,124.26l2.72-11.42h2.88l2.59,11.42H67.07l-.57-2.9H64l-.56,2.9Zm3.18-4.57h1.83l-.58-3.24c-.11-.54-.15-1-.21-1.59,0-.25,0-.51-.08-.76h0c0,.25-.06.51-.08.76-.06.54-.1,1-.21,1.59Z"/><path class="cls-3" d="M72.5,124.26H70.37V112.84h3.39l1.15,5.3a26.06,26.06,0,0,1,.39,2.63h0a23.29,23.29,0,0,1,.34-2.63l1.14-5.3h3.38v11.42H78.06v-3.59c0-2.27,0-4.54.18-6.81h0l-2.28,10.4h-1.3l-2.24-10.4h-.07c.13,2.27.18,4.54.18,6.81Z"/></g></g></svg>